{"title":"Brave[2012]BRrip[Ac3-5.1]-=[CaLvIn]=-","uid":7798791,"size":762133867,"categoryP":"video","categoryS":"movies","magnet":"?xt=urn:btih:5c97eec5ae54015a6ba35ae6506334d5f9c0c95f&amp;dn=Brave%5B2012%5DBRrip%5BAc3-5.1%5D-%3D%5BCaLvIn%5D%3D-&amp;tr=udp%3A%2F%2Ftracker.openbittorrent.com%3A80&amp;tr=udp%3A%2F%2Fopen.demonii.com%3A1337&amp;tr=udp%3A%2F%2Ftracker.coppersurfer.tk%3A6969&amp;tr=udp%3A%2F%2Fexodus.desync.com%3A6969","seeders":1,"leechers":0,"uploader":"rhythmtheguru","files":15,"time":1352224402,"description":"General\nComplete name                    : Brave[2012]BRrip[Ac3-5.1]-=[CaLvIn]=-\nImdb Link                        : http://www.imdb.com/title/tt1217209/\nFormat                           : AVI\nFormat/Info                      : Audio Video Interleave\nFile size                        : 712 MiB\nDuration                         : 1h 33mn\nOverall bit rate                 : 1 064 Kbps\nWriting application              : VirtualDubMod 1.5.10.3 | www.virtualdub-fr.org || (build 2550/release)\nWriting library                  : VirtualDubMod build 2550/release\n\nVideo\nID                               : 0\nFormat                           : MPEG-4 Visual\nFormat profile                   : Advanced Simple@L5\nFormat settings, BVOP            : 2\nFormat settings, QPel            : No\nFormat settings, GMC             : No warppoints\nFormat settings, Matrix          : Default (H.263)\nCodec ID                         : XVID\nCodec ID/Hint                    : XviD\nDuration                         : 1h 33mn\nBit rate                         : 798 Kbps\nWidth                            : 720 pixels\nHeight                           : 304 pixels\nDisplay aspect ratio             : 16:9\nFrame rate                       : 23.976 fps\nColor space                      : YUV\nChroma subsampling               : 4:2:0\nBit depth                        : 8 bits\nScan type                        : Progressive\nCompression mode                 : Lossy\nBits/(Pixel*Frame)               : 0.152\nStream size                      : 534 MiB (75%)\nWriting library                  : XviD 1.2.1 (UTC 2008-12-04)\n\nAudio\nID                               : 1\nFormat                           : AC-3\nFormat/Info                      : Audio Coding 3\nMode extension                   : CM (complete main)\nCodec ID                         : 2000\nDuration                         : 1h 33mn\nBit rate mode                    : Constant\nBit rate                         : 256 Kbps\nChannel(s)                       : 6 channels\nChannel positions                : Front: L C R, Side: L R, LFE\nSampling rate                    : 48.0 KHz\nBit depth                        : 16 bits\nCompression mode                 : Lossy\nStream size                      : 171 MiB (24%)\nAlignment                        : Split accross interleaves\nInterleave, duration             : 42 ms (1.00 video frame)\nInterleave, preload duration     : 500 ms\n\nScreens\n &lt;a href=&quot;\nhttp://img442.imageshack.us/img442/9171/31538391.png&quot; rel=&quot;nofollow&quot; target=&quot;_NEW&quot;&gt;\nhttp://img442.imageshack.us/img442/9171/31538391.png&lt;/a&gt; &lt;a href=&quot;\nhttp://img829.imageshack.us/img829/4084/62768301.png&quot; rel=&quot;nofollow&quot; target=&quot;_NEW&quot;&gt;\nhttp://img829.imageshack.us/img829/4084/62768301.png&lt;/a&gt; &lt;a href=&quot;\nhttp://img716.imageshack.us/img716/9074/66387099.png&quot; rel=&quot;nofollow&quot; target=&quot;_NEW&quot;&gt;\nhttp://img716.imageshack.us/img716/9074/66387099.png&lt;/a&gt; &lt;a href=&quot;\nhttp://img831.imageshack.us/img831/7565/47126883.png&quot; rel=&quot;nofollow&quot; target=&quot;_NEW&quot;&gt;\nhttp://img831.imageshack.us/img831/7565/47126883.png&lt;/a&gt; &lt;a href=&quot;\nhttp://img689.imageshack.us/img689/9274/82736610.png&quot; rel=&quot;nofollow&quot; target=&quot;_NEW&quot;&gt;\nhttp://img689.imageshack.us/img689/9274/82736610.png&lt;/a&gt; &lt;a href=&quot;\nhttp://img210.imageshack.us/img210/4818/54449896.png&quot; rel=&quot;nofollow&quot; target=&quot;_NEW&quot;&gt;\nhttp://img210.imageshack.us/img210/4818/54449896.png&lt;/a&gt; &lt;a href=&quot;\nhttp://img829.imageshack.us/img829/6484/32696266.png&quot; rel=&quot;nofollow&quot; target=&quot;_NEW&quot;&gt;\nhttp://img829.imageshack.us/img829/6484/32696266.png&lt;/a&gt; &lt;a href=&quot;\nhttp://img821.imageshack.us/img821/9084/74321829.png&quot; rel=&quot;nofollow&quot; target=&quot;_NEW&quot;&gt;\nhttp://img821.imageshack.us/img821/9084/74321829.png&lt;/a&gt; &lt;a href=&quot;\nhttp://img846.imageshack.us/img846/9466/20967291.png&quot; rel=&quot;nofollow&quot; target=&quot;_NEW&quot;&gt;\nhttp://img846.imageshack.us/img846/9466/20967291.png&lt;/a&gt; &lt;a href=&quot;\nhttp://img189.imageshack.us/img189/1930/68001558.png&quot; rel=&quot;nofollow&quot; target=&quot;_NEW&quot;&gt;\nhttp://img189.imageshack.us/img189/1930/68001558.png&lt;/a&gt;","torrent":{"xt":"urn:btih:5c97eec5ae54015a6ba35ae6506334d5f9c0c95f","amp;dn":"Brave%5B2012%5DBRrip%5BAc3-5.1%5D-%3D%5BCaLvIn%5D%3D-","amp;tr":["udp%3A%2F%2Ftracker.openbittorrent.com%3A80","udp%3A%2F%2Fopen.demonii.com%3A1337","udp%3A%2F%2Ftracker.coppersurfer.tk%3A6969","udp%3A%2F%2Fexodus.desync.com%3A6969"],"infoHash":"5c97eec5ae54015a6ba35ae6506334d5f9c0c95f","infoHashBuffer":{"type":"Buffer","data":[92,151,238,197,174,84,1,90,107,163,90,230,80,99,52,213,249,192,201,95]},"announce":[],"urlList":[]}}